<svg xmlns="http://www.w3.org/2000/svg" width="500" height="500" style="shape-rendering:geometricPrecision;text-rendering:geometricPrecision;image-rendering:optimizeQuality;fill-rule:evenodd;clip-rule:evenodd"><path fill="#d2d5db" d="M233.5 165.5c2.412.194 3.412 1.527 3 4h-11v-3c2.885.306 5.552-.027 8-1Z" style="opacity:.933"/><path fill="#3a4040" d="M192.5 171.5c2.193-1.297 4.527-1.297 7 0-.124.607-.457.94-1 1-1.765-.961-3.765-1.295-6-1Z" style="opacity:.031"/><path fill="#828586" d="M125.5 172.5c-9.515-.327-18.848.006-28 1-.543-.06-.876-.393-1-1 9.825-1.323 19.492-1.323 29 0Z" style="opacity:.438"/><path fill="#f2f3ed" d="M237.5 171.5c.14 1.624-.527 2.79-2 3.5a260.162 260.162 0 0 0-40 14.5c-.789-.283-1.456-.783-2-1.5l6-5a4.934 4.934 0 0 0-3-.5 4.934 4.934 0 0 1 .5-3c1.84 1.333 2.34 1.166 1.5-.5 2.177-1.186 3.177-3.019 3-5.5.418-.722 1.084-1.222 2-1.5 11.328-.5 22.662-.667 34-.5Z" style="opacity:1"/><path fill="#e3e5e4" d="M125.5 172.5a29.01 29.01 0 0 1 3 4.5c-.228.399-.562.565-1 .5-7.674-.166-15.341 0-23 .5 6.028.17 12.028.67 18 1.5l-3 2.5c-5.657.499-11.324.666-17 .5a37.772 37.772 0 0 1-5-9c9.152-.994 18.485-1.327 28-1Z" style="opacity:1"/><path fill="#eef0ea" d="M201.5 173.5c.177 2.481-.823 4.314-3 5.5.84 1.666.34 1.833-1.5.5a4.934 4.934 0 0 0-.5 3 4.934 4.934 0 0 1 3 .5l-6 5c.544.717 1.211 1.217 2 1.5l-2 2a578.6 578.6 0 0 1-31 5 18.196 18.196 0 0 1-6-4c0-.667.333-1 1-1 .992.172 1.658-.162 2-1h1c.667 0 1-.333 1-1 .992.172 1.658-.162 2-1l4-1c.992.172 1.658-.162 2-1a5.727 5.727 0 0 1 3-1c1.88.271 3.213-.396 4-2a35.666 35.666 0 0 0 7-4c3.042-.233 5.708-1.233 8-3 2.053.098 3.72-.569 5-2a20.69 20.69 0 0 1 5-1Z" style="opacity:.999"/><path fill="#707479" d="M237.5 171.5c1.314 2.395 1.314 4.895 0 7.5a198.951 198.951 0 0 0-23 7.5c-3.355.19-6.355 1.19-9 3h-1a128.748 128.748 0 0 1-11 2l2-2a260.162 260.162 0 0 1 40-14.5c1.473-.71 2.14-1.876 2-3.5Z" style="opacity:.625"/><path fill="#616669" d="M127.5 177.5c2.233 1.309 3.567 3.309 4 6h-28c-.667 0-1-.333-1-1 5.676.166 11.343-.001 17-.5l3-2.5a164.307 164.307 0 0 0-18-1.5c7.659-.5 15.326-.666 23-.5Z" style="opacity:1"/><path fill="#c9cdcb" d="M192.5 171.5c2.235-.295 4.235.039 6 1-1 .333-1.667 1-2 2-2.053-.098-3.72.569-5 2-3.042.233-5.708 1.233-8 3a25.93 25.93 0 0 0-9 3.5 2.428 2.428 0 0 0 2 .5c-.787 1.604-2.12 2.271-4 2a2.428 2.428 0 0 0-.5-2 20.499 20.499 0 0 0-3.5 2.5c.228.399.562.565 1 .5-.342.838-1.008 1.172-2 1a2.428 2.428 0 0 0-.5-2c-1.518.663-2.685 1.663-3.5 3-1.425-1.531-2.091-1.198-2 1 0 .667-.333 1-1 1-.333-2.667-.667-2.667-1 0-.342.838-1.008 1.172-2 1-2.243-.584-4.243-1.75-6-3.5a280.48 280.48 0 0 1 41-16.5Z" style="opacity:.957"/><path fill="#262a30" d="M103.5 183.5h28l1 2h-27v3c-1.431-1.28-2.098-2.947-2-5Z" style="opacity:.992"/><path fill="#d2d5d5" d="M292.5 188.5c-1.419.951-3.085 1.284-5 1-4.6-2.752-9.1-5.752-13.5-9a1443.785 1443.785 0 0 1-25.5 5.5c-.556.383-.889.883-1 1.5-2.049-.206-2.383-1.039-1-2.5-3.268-.38-6.268.454-9 2.5-1.196-.346-1.196-.846 0-1.5-3.028-1.14-5.195-.306-6.5 2.5-1.049-1.607-2.549-2.273-4.5-2a808.101 808.101 0 0 1 47-10c2.134.015 4.134.515 6 1.5a190.4 190.4 0 0 0 13 10.5Z" style="opacity:1"/><path fill="#272b2d" d="M214.5 186.5v1a45.777 45.777 0 0 0-7 3c-.342-.838-1.008-1.172-2-1 2.645-1.81 5.645-2.81 9-3Z" style="opacity:.137"/><path fill="#656767" d="M247.5 187.5c.978.311 1.645.978 2 2a225.771 225.771 0 0 1-30 1c9.545-.343 18.878-1.343 28-3Z" style="opacity:.32"/><path fill="#77787a" d="M292.5 188.5c.543.06.876.393 1 1-2.136 1.293-4.136 1.293-6 0 1.915.284 3.581-.049 5-1Z" style="opacity:.42"/><path fill="#6e757d" d="M132.5 185.5c1.025.397 1.192 1.063.5 2-6.251 2.583-10.918 6.916-14 13a33.27 33.27 0 0 0-8.5-3.5c-2.32-2.478-3.986-5.311-5-8.5v-3h27Z" style="opacity:1"/><path fill="#666a65" d="m218.5 190.5 41 2h-8c-12.005.167-24.005 0-36-.5l-1-1a8.43 8.43 0 0 1 4-.5Z" style="opacity:.307"/><path fill="#2b2e2f" d="m204.5 189.5-1 2a100.038 100.038 0 0 1-16 4 412.848 412.848 0 0 1-19 2c-2.452.039-4.452.706-6 2 .492 4.314 1.825 8.314 4 12a20.69 20.69 0 0 1-5 1 50.464 50.464 0 0 0-.5-10 82.844 82.844 0 0 0-5.5-9c0-.667.333-1 1-1a18.196 18.196 0 0 0 6 4 578.6 578.6 0 0 0 31-5 128.748 128.748 0 0 0 11-2Z" style="opacity:1"/><path fill="#d7dddd" d="M324.5 192.5c-1.1 1.105-1.767 2.438-2 4h-54c-.934-1.068-1.268-2.401-1-4a736.999 736.999 0 0 1 57 0Z" style="opacity:1"/><path fill="#444753" d="M324.5 192.5c.891.61 1.891.943 3 1-1 1.667-2.333 3-4 4 0-.667-.333-1-1-1 .233-1.562.9-2.895 2-4Z" style="opacity:.067"/><path fill="#f4f6ee" d="M247.5 187.5c-9.122 1.657-18.455 2.657-28 3h-1a8.43 8.43 0 0 0-4 .5l1 1c11.995.5 23.995.667 36 .5-.077 1.25-.744 2.083-2 2.5a26.67 26.67 0 0 0-6.5 1.5c-7.341-.393-14.674.607-22 3-1.4-.616-2.9-.949-4.5-1-9.728 2.279-19.395 3.613-29 4-2.631.179-4.965-.487-7-2 1.533-2.138 3.366-2.805 5.5-2l1.5-3a100.038 100.038 0 0 0 16-4l4-1a45.777 45.777 0 0 1 7-3 73.314 73.314 0 0 1 12-1c1.951-.273 3.451.393 4.5 2 1.305-2.806 3.472-3.64 6.5-2.5-1.196.654-1.196 1.154 0 1.5 2.732-2.046 5.732-2.88 9-2.5-1.383 1.461-1.049 2.294 1 2.5Z" style="opacity:1"/><path fill="#eff0ea" d="M155.5 193.5a82.844 82.844 0 0 1 5.5 9c.498 3.317.665 6.65.5 10a53.76 53.76 0 0 1-2 8c-8.992 10.74-19.658 12.573-32 5.5-3.793-3.426-6.126-7.592-7-12.5v-11c2.573-6.491 7.24-10.991 14-13.5 7.822-1.709 14.822-.209 21 4.5Zm-13 14c1.618 2.156 1.284 3.823-1 5l-2-3c.722-1.051 1.722-1.718 3-2Z" style="opacity:1"/><path fill="#eef1ec" d="M251.5 192.5h8c-1.234 1.569-3.234 3.069-6 4.5l-10 2.5a915.449 915.449 0 0 1-48 4 166.63 166.63 0 0 1-27-2l-6-2c1.548-1.294 3.548-1.961 6-2a412.848 412.848 0 0 0 19-2l-1.5 3c-2.134-.805-3.967-.138-5.5 2 2.035 1.513 4.369 2.179 7 2 9.605-.387 19.272-1.721 29-4 1.6.051 3.1.384 4.5 1 7.326-2.393 14.659-3.393 22-3a26.67 26.67 0 0 1 6.5-1.5c1.256-.417 1.923-1.25 2-2.5Z" style="opacity:1"/><path fill="#707880" d="M279.5 196.5h43v1c-2.318 2.125-3.152 4.791-2.5 8 .278-.916.778-1.582 1.5-2v9c-.79-1.109-1.29-2.442-1.5-4-.77-1.098-1.603-1.098-2.5 0h-45l7-12Z" style="opacity:1"/><path fill="#49515a" d="M268.5 196.5h11l-7 12h-4v-12Z" style="opacity:.636"/><path fill="#6e787f" d="M243.5 199.5c-3.517 9.845-10.517 15.178-21 16-12.338.167-24.671 0-37-.5a352.115 352.115 0 0 1-17-13.5 166.63 166.63 0 0 0 27 2 915.449 915.449 0 0 0 48-4Z" style="opacity:1"/><path fill="#737577" d="M367.5 204.5c-1.713 1.135-2.38 2.802-2 5l-2-5v-1c1.501-.943 2.835-.609 4 1Z" style="opacity:.412"/><path fill="#87878c" d="M120.5 202.5v11c-.789-.283-1.456-.783-2-1.5 1.333-2.333 1.333-4.667 0-7 .566-.995 1.233-1.828 2-2.5Z" style="opacity:.696"/><path fill="#3f464f" d="m162.5 199.5 6 2a352.115 352.115 0 0 0 17 13.5c12.329.5 24.662.667 37 .5-14.844 1.219-29.844 1.219-45 0-2.45.202-4.783-.131-7-1l-4-3c-2.175-3.686-3.508-7.686-4-12Z" style="opacity:.916"/><path fill="#181a21" d="M268.5 198.5v10h17c-1.452.802-3.118 1.302-5 1.5 2.536.186 4.869.686 7 1.5-5.79-.752-11.123.248-16 3-1.126-3.027-2.626-3.36-4.5-1-.383-.556-.883-.889-1.5-1v-6c.617-.111 1.117-.444 1.5-1 .186-2.536.686-4.869 1.5-7Z" style="opacity:.155"/><path fill="#13171b" d="M292.5 208.5h25c-5.475.989-11.142 1.322-17 1 .268 1.599-.066 2.932-1 4-2.837-1.902-6.171-2.569-10-2 1.452-.802 3.118-1.302 5-1.5-.916-.278-1.582-.778-2-1.5Z" style="opacity:.067"/><path fill="#777e84" d="M351.5 215.5c-8.241 7.348-15.241 6.348-21-3-.012-10.821 5.322-15.321 16-13.5 6.756 4.001 8.423 9.501 5 16.5Z" style="opacity:1"/><path fill="#eef0eb" d="M363.5 203.5c-.667 0-1 .333-1 1 .311 4.18-.355 8.18-2 12a43.836 43.836 0 0 0-2-1c-.626-1.029-1.459-2.029-2.5-3l-3 4c-.383-.556-.883-.889-1.5-1 3.423-6.999 1.756-12.499-5-16.5-10.678-1.821-16.012 2.679-16 13.5-1.757-.792-3.091-2.125-4-4a19.887 19.887 0 0 1-4 3.5c.88 1.356 1.214 2.856 1 4.5h3c.17 1.322-.163 2.489-1 3.5a34.099 34.099 0 0 0 6 3c1.333 1 1.333 2 0 3 2.519.586 4.519 1.753 6 3.5-9.476-1.808-14.809-7.475-16-17v-9l1-6h1c1.667-1 3-2.333 4-4 15.539-9.37 27.539-6.037 36 10Z" style="opacity:1"/><path fill="#1b222b" d="M340.5 206.5c4.541.315 5.541 2.149 3 5.5-4.824.183-5.824-1.65-3-5.5Z" style="opacity:.239"/><path fill="#dfe1e2" d="m367.5 204.5 16 7c-6.115 1.563-12.115.896-18-2-.38-2.198.287-3.865 2-5Z" style="opacity:1"/><path fill="#747d83" d="M136.5 198.5c10.34-1.477 15.507 2.856 15.5 13-1.596 6.007-5.596 9.007-12 9-7.271-1.882-10.605-6.549-10-14 1.305-3.461 3.471-6.128 6.5-8Zm6 9c1.618 2.156 1.284 3.823-1 5l-2-3c.722-1.051 1.722-1.718 3-2Z" style="opacity:.99"/><path fill="#1b1e27" d="M142.5 207.5c-1.278.282-2.278.949-3 2l2 3c-2.209.852-3.543-.148-4-3a4.933 4.933 0 0 1 1-2.5c1.566-.765 2.899-.598 4 .5Z" style="opacity:.106"/><path fill="#84868b" d="M265.5 206.5v9c.306 2.885-.027 5.552-1 8a169.926 169.926 0 0 0-1-26c-3.216 3.104-6.882 5.437-11 7-.438.065-.772-.101-1-.5l2-5a77.274 77.274 0 0 1 12-2.5v10Z" style="opacity:.737"/><path fill="#585d63" d="M365.5 209.5c5.885 2.896 11.885 3.563 18 2 .789.283 1.456.783 2 1.5-6.028.17-12.028.67-18 1.5 4.36 6.841 3.027 7.841-4 3a2336.36 2336.36 0 0 1 2-8Z" style="opacity:.424"/><path fill="#d8dbd6" d="M371.5 215.5c9.819-.994 19.819-1.327 30-1v10h-25c.01-4.003-1.657-7.003-5-9Z" style="opacity:1"/><path fill="#40464d" d="M287.5 211.5h2c3.829-.569 7.163.098 10 2-.333 2.333-1.667 3.667-4 4-8.403.634-16.403-.033-24-2v-1c4.877-2.752 10.21-3.752 16-3Z" style="opacity:.612"/><path fill="#737b82" d="M277.5 212.5c7.032-.33 14.032.003 21 1a7.248 7.248 0 0 1-2 2.5c-7 .667-14 .667-21 0 1.323-.816 1.989-1.983 2-3.5Z" style="opacity:.987"/><path fill="#aeb0af" d="M362.5 204.5h1c1.118 8.59-1.549 15.59-8 21 .086-.996-.248-1.829-1-2.5a4.934 4.934 0 0 1 3-.5 51.569 51.569 0 0 0 1-7c.65.304 1.317.637 2 1 1.645-3.82 2.311-7.82 2-12Z" style="opacity:1"/><path fill="#3e4146" d="M252.5 205.5v13c-25.002-.167-50.002 0-75 .5a14.506 14.506 0 0 1 5 4c27.331.5 54.665.667 82 .5v1c-35.335.167-70.668 0-106-.5.837-1.011 1.17-2.178 1-3.5a1170.94 1170.94 0 0 0 11-6c2.217.869 4.55 1.202 7 1 24.311 1.99 48.977 2.657 74 2-.317-4.202.017-8.202 1-12Z" style="opacity:.111"/><path fill="#f4f5f2" d="M264.5 223.5c-27.335.167-54.669 0-82-.5a14.506 14.506 0 0 0-5-4c24.998-.5 49.998-.667 75-.5v-14c4.118-1.563 7.784-3.896 11-7a169.926 169.926 0 0 1 1 26Z" style="opacity:.993"/><path fill="#1b1f26" d="M265.5 215.5c2.049 1.141 4.049 1.141 6 0 7.597 1.967 15.597 2.634 24 2-.299 1.955-1.299 3.289-3 4 .111-.617.444-1.117 1-1.5-6.992-.5-13.992-.666-21-.5h-4v4a133.08 133.08 0 0 0 21 1c-8.185 1.22-16.518 1.22-25 0v-1c.973-2.448 1.306-5.115 1-8Z" style="opacity:.249"/><path fill="#798287" d="M272.5 219.5c7.008-.166 14.008 0 21 .5-.556.383-.889.883-1 1.5-.789.283-1.456.783-2 1.5-5.991.499-11.991.666-18 .5v-4Z" style="opacity:.994"/><path fill="#707980" d="M164.5 220.5a72.367 72.367 0 0 1 12 .5l2 2c-5 .667-10 .667-15 0 .752-.671 1.086-1.504 1-2.5Z" style="opacity:.918"/><path fill="#eff1e8" d="M330.5 212.5c5.759 9.348 12.759 10.348 21 3 .617.111 1.117.444 1.5 1l3-4c1.041.971 1.874 1.971 2.5 3a51.569 51.569 0 0 1-1 7 4.934 4.934 0 0 0-3 .5c.752.671 1.086 1.504 1 2.5-5.401 4.476-11.401 5.81-18 4-1.481-1.747-3.481-2.914-6-3.5 1.333-1 1.333-2 0-3a34.099 34.099 0 0 1-6-3c.837-1.011 1.17-2.178 1-3.5h-3c.214-1.644-.12-3.144-1-4.5a19.887 19.887 0 0 0 4-3.5c.909 1.875 2.243 3.208 4 4Z" style="opacity:1"/><path fill="#444950" d="M272.5 219.5v4c6.009.166 12.009-.001 18-.5.544-.717 1.211-1.217 2-1.5 0 2-1 3-3 3a133.08 133.08 0 0 1-21-1v-4h4Z" style="opacity:.535"/><path fill="#1f1f1f" d="M298.5 253.5v7h-3a23.26 23.26 0 0 0 3-7Z" style="opacity:.031"/><path fill="#eeefe7" d="M211.5 278.5v1c-1.333 1.333-1.333 2.667 0 4a25.497 25.497 0 0 0 5 7c-5.007-.49-5.674.343-2 2.5l-1.5 1.5c-3.474-1.428-3.974-.928-1.5 1.5 8.261 5.577 16.261 5.077 24-1.5-1.247-1.542-1.247-3.042 0-4.5 1.244-.456 2.077.044 2.5 1.5a29.927 29.927 0 0 0 2-9c.278.916.778 1.582 1.5 2-1.609 11.609-8.276 18.276-20 20-3.618-.357-6.785-1.691-9.5-4a4.934 4.934 0 0 0-.5 3h-13v-47c2.35-.646 3.684-1.813 4-3.5-2.333-1.243-3-2.909-2-5a50.464 50.464 0 0 1 10-.5 94.524 94.524 0 0 0 1 18.5c-2.782 3.408-2.448 6.408 1 9-2.227.704-2.56 1.871-1 3.5Z" style="opacity:1"/><path fill="#7b7e82" d="M382.5 261.5c7.177-1.319 14.51-1.319 22 0-.124.607-.457.94-1 1-6.813-.991-13.813-1.325-21-1Z" style="opacity:.541"/><path fill="#e9ebe6" d="M263.5 260.5c18.131-.87 27.131 7.797 27 26-9.357-.332-18.69.002-28 1 3.914 4.911 8.247 5.244 13 1l9 10c-9.752 7.792-19.752 7.959-30 .5-11.864-16.524-8.864-29.358 9-38.5Zm10 14c-1.302 1.528-2.969 2.528-5 3-2.132-.054-3.465-1.054-4-3 3-1.333 6-1.333 9 0Z" style="opacity:.999"/><path fill="#eeefe7" d="M298.5 287.5v-15h-3v-12h3v-7c-.582-2.169-.582-4.502 0-7h12v13c2.859.092 5.359.425 7.5 1 .499 4.321.666 8.654.5 13h-8a72.367 72.367 0 0 0 .5 12c1.41 3.289 3.91 4.956 7.5 5v14c-12.273.716-18.94-4.95-20-17Z" style="opacity:1"/><path fill="#eaece6" d="M338.5 260.5c18.547-.788 27.213 7.879 26 26-9.339-.166-18.673 0-28 .5 3.854 5.219 8.187 5.719 13 1.5a134.072 134.072 0 0 1 10 9.5c-8.59 7.273-17.924 8.273-28 3-10.169-8.842-12.335-19.342-6.5-31.5 3.882-4.071 8.382-7.071 13.5-9Zm10 14c.039 1.256-.461 2.256-1.5 3-2.7.31-5.533-.023-8.5-1 .077-1.25.744-2.083 2-2.5 2.721-.602 5.387-.435 8 .5Z" style="opacity:.999"/><path fill="#e5e6e3" d="M173.5 303.5c.73-1.212 1.73-2.212 3-3a4.457 4.457 0 0 0-2-1.5c2.871-.131 5.205-1.297 7-3.5.951.826 1.951.992 3 .5-.845-1.558-.179-2.558 2-3a4.934 4.934 0 0 0-3-.5 117.952 117.952 0 0 1 6-8c-.669-2.528-1.502-2.528-2.5 0l-1-2a50.413 50.413 0 0 0-2.5-13 9.108 9.108 0 0 0-5-1c-.214 1.644.12 3.144 1 4.5-1.801.317-2.134.984-1 2-.881.708-1.547 1.542-2 2.5-6.039-5.59-11.705-5.257-17 1-.172-1.992.495-3.658 2-5-.777-2.039-1.943-2.705-3.5-2-.388-.928-1.055-1.595-2-2-3.579 3.533-5.745 7.867-6.5 13-.261 4.322.072 8.655 1 13-8.787-15.865-4.787-27.365 12-34.5 16.761-2.398 26.094 4.769 28 21.5-.72 11.15-6.387 18.15-17 21Zm3-26c2.084 7.725-.75 12.058-8.5 13-6.965-.897-9.798-4.897-8.5-12 5.295-6.257 10.961-6.59 17-1Z" style="opacity:1"/><path fill="#e6e7e3" d="M198.5 246.5h13c.014 5.555.181 10.889.5 16 10.061-4.055 18.727-2.055 26 6a23.423 23.423 0 0 1 2.5 6c-2.928 1.013-4.262-.32-4-4a52.174 52.174 0 0 1-9-3c-.117 1.984.55 3.65 2 5-2.785 1.301-2.619 3.301.5 6a34.041 34.041 0 0 0 1.5 7.5c-.958 1.147-.625 2.147 1 3-4.68 3.98-9.68 4.48-15 1.5 8.837-.324 12.003-4.657 9.5-13-5.586-5.473-10.753-5.14-15.5 1-1.56-1.629-1.227-2.796 1-3.5-3.448-2.592-3.782-5.592-1-9a94.524 94.524 0 0 1-1-18.5 50.464 50.464 0 0 0-10 .5c-1 2.091-.333 3.757 2 5-.316 1.687-1.65 2.854-4 3.5v-10Z" style="opacity:1"/><path fill="#787a7c" d="M295.5 260.5v12h3v15c-.986-4.47-1.319-9.137-1-14h-3c-.318-4.532.015-8.866 1-13Z" style="opacity:.576"/><path fill="#f0f1ea" d="M392.5 272.5c-3.448-.599-6.114.401-8 3-.086.996.248 1.829 1 2.5a33.689 33.689 0 0 0 9 3.5c-.94 2.552.06 3.386 3 2.5-1.333-1.84-1.166-2.34.5-1.5 2.365 3.107 2.532 6.107.5 9l-1-2-2 2c-1.803-4.551-5.636-7.551-11.5-9-.725 1.658-1.892 2.158-3.5 1.5-3.28-2.895-4.946-6.562-5-11 3.5-2.833 6.667-6 9.5-9.5 4.53.755 9.364 1.088 14.5 1-.013 2.861-1.179 3.861-3.5 3-2.167 1.5-2 2.667.5 3.5-1.558.21-2.891.71-4 1.5Z" style="opacity:1"/><path fill="#eaece8" d="M110.5 280.5c-1.307 1.723-1.307 3.557 0 5.5a9.454 9.454 0 0 0-2.5 1.5c-.26-2.118-1.26-3.784-3-5l-1 3c-.71-1.473-1.876-2.14-3.5-2v3h-3c-1.022-18.807 7.978-27.307 27-25.5 15.234 4.57 16.234 10.737 3 18.5-6.226-8.314-11.893-7.98-17 1Z" style="opacity:1"/><path fill="#1e1e1e" d="M273.5 274.5a6.547 6.547 0 0 1 3 3h-8c2.031-.472 3.698-1.472 5-3Z" style="opacity:.048"/><path fill="#898989" d="M264.5 274.5c.535 1.946 1.868 2.946 4 3h8c-4.848 1.314-9.848 1.314-15 0 .124-.607.457-.94 1-1 .333-1 1-1.667 2-2Z" style="opacity:.543"/><path fill="#767676" d="M348.5 274.5c1 .333 1.667 1 2 2-1.333.333-1.333.667 0 1-4.515 1.312-9.182 1.312-14 0 .124-.607.457-.94 1-1 .333 1.333.667 1.333 1 0 2.967.977 5.8 1.31 8.5 1 1.039-.744 1.539-1.744 1.5-3Z" style="opacity:.569"/><path fill="#4b4b4e" d="M198.5 246.5v57a182.023 182.023 0 0 1-2-10 577.702 577.702 0 0 1 2-47Z" style="opacity:.307"/><path fill="#5c5d5e" d="M211.5 279.5c.854 1.535.854 2.868 0 4-1.333-1.333-1.333-2.667 0-4Z" style="opacity:.455"/><path fill="#e5e6e2" d="M382.5 261.5c7.187-.325 14.187.009 21 1-2.2 4.38-5.033 8.38-8.5 12-.995-.566-1.828-1.233-2.5-2 1.109-.79 2.442-1.29 4-1.5-2.5-.833-2.667-2-.5-3.5 2.321.861 3.487-.139 3.5-3-5.136.088-9.97-.245-14.5-1-2.833 3.5-6 6.667-9.5 9.5.054 4.438 1.72 8.105 5 11 1.608.658 2.775.158 3.5-1.5 5.864 1.449 9.697 4.449 11.5 9l2-2 1 2c2.032-2.893 1.865-5.893-.5-9-1.666-.84-1.833-.34-.5 1.5-2.94.886-3.94.052-3-2.5a33.689 33.689 0 0 1-9-3.5c-.752-.671-1.086-1.504-1-2.5 6.299 1.043 11.799 3.709 16.5 8 3.559 9.377.725 15.877-8.5 19.5a88.739 88.739 0 0 1-23-.5 216.167 216.167 0 0 1 8-11.5c2.378.575 4.878 1.075 7.5 1.5 1.973.191 3.473-.476 4.5-2-3.884-2.904-8.217-5.07-13-6.5-5.543-5.096-6.376-10.93-2.5-17.5 2.313-2.572 5.146-4.239 8.5-5Z" style="opacity:1"/><path fill="#f3f3e9" d="M240.5 274.5c1.405 3.316 1.738 6.649 1 10-.722-.418-1.222-1.084-1.5-2a29.927 29.927 0 0 1-2 9c-.423-1.456-1.256-1.956-2.5-1.5-1.247 1.458-1.247 2.958 0 4.5-7.739 6.577-15.739 7.077-24 1.5-2.474-2.428-1.974-2.928 1.5-1.5l1.5-1.5c-3.674-2.157-3.007-2.99 2-2.5h1c5.32 2.98 10.32 2.48 15-1.5-1.625-.853-1.958-1.853-1-3a34.041 34.041 0 0 1-1.5-7.5c-3.119-2.699-3.285-4.699-.5-6-1.45-1.35-2.117-3.016-2-5a52.174 52.174 0 0 0 9 3c-.262 3.68 1.072 5.013 4 4Z" style="opacity:1"/><path fill="#e7e8e2" d="M110.5 280.5c.505 7.014 4.172 10.18 11 9.5 2.5-1.167 4.333-3 5.5-5.5 4.534 2.853 7.867 6.52 10 11-12 12-24 12-36 0-2.05-2.648-3.216-5.648-3.5-9h3v-3c1.624-.14 2.79.527 3.5 2l1-3c1.74 1.216 2.74 2.882 3 5a9.454 9.454 0 0 1 2.5-1.5c-1.307-1.943-1.307-3.777 0-5.5Z" style="opacity:1"/><path fill="#eff0e9" d="M173.5 303.5c-9.39 2.075-17.056-.592-23-8-.928-4.345-1.261-8.678-1-13 .755-5.133 2.921-9.467 6.5-13 .945.405 1.612 1.072 2 2 1.557-.705 2.723-.039 3.5 2-1.505 1.342-2.172 3.008-2 5-1.298 7.103 1.535 11.103 8.5 12 7.75-.942 10.584-5.275 8.5-13 .453-.958 1.119-1.792 2-2.5-1.134-1.016-.801-1.683 1-2-.88-1.356-1.214-2.856-1-4.5a9.108 9.108 0 0 1 5 1 50.413 50.413 0 0 1 2.5 13l1 2c.998-2.528 1.831-2.528 2.5 0a117.952 117.952 0 0 0-6 8 4.934 4.934 0 0 1 3 .5c-2.179.442-2.845 1.442-2 3-1.049.492-2.049.326-3-.5-1.795 2.203-4.129 3.369-7 3.5a4.457 4.457 0 0 1 2 1.5c-1.27.788-2.27 1.788-3 3Zm3-26c2.084 7.725-.75 12.058-8.5 13-6.965-.897-9.798-4.897-8.5-12 5.295-6.257 10.961-6.59 17-1Z" style="opacity:1"/><path fill="#2c2e31" d="M206.5 330.5c-.333 1-1 1.667-2 2-.438.065-.772-.101-1-.5.744-1.039 1.744-1.539 3-1.5Z" style="opacity:.165"/><path fill="#8a8d8f" d="M283.5 329.5a36.875 36.875 0 0 0-12 1 71.254 71.254 0 0 1 4 2h-5v-4c4.532-.318 8.866.015 13 1Z" style="opacity:.467"/><path fill="#16251d" d="M193.5 332.5c-.418.722-1.084 1.222-2 1.5.916.278 1.582.778 2 1.5h-3v-3h3Z" style="opacity:.055"/><path fill="#cdcfcf" d="M298.5 332.5c-1.593-1.367-2.926-1.034-4 1 1.077 1.205 2.41 1.872 4 2 1.38-1.206 2.547-.873 3.5 1 1.871 5.173.204 8.173-5 9a16.152 16.152 0 0 1-6.5-3 7.293 7.293 0 0 1 2-3 66.678 66.678 0 0 1 5.5 2l1.5-1.5c-3.306-.692-6.14-2.192-8.5-4.5-.913-2.852-.08-5.019 2.5-6.5a16.242 16.242 0 0 1 8 0c1.211 1.113 1.211 2.28 0 3.5-.925 1.062-1.925 1.062-3 0Z" style="opacity:.944"/><path fill="#353536" d="M298.5 332.5c-1.125.848-1.125 1.848 0 3-1.59-.128-2.923-.795-4-2 1.074-2.034 2.407-2.367 4-1Z" style="opacity:.094"/><path fill="#484d50" d="M263.5 331.5c-1.777 1.1-3.777 1.934-6 2.5 1.558.21 2.891.71 4 1.5h-6v-4h8Z" style="opacity:.176"/><path fill="#dee1e3" d="M283.5 329.5c1.333.667 1.333 1.333 0 2h-5v13h-3v-12a71.254 71.254 0 0 0-4-2 36.875 36.875 0 0 1 12-1Z" style="opacity:.939"/><path fill="#a5a6a5" d="M238.5 335.5c0-.667.333-1 1-1 .768.763 1.268 1.763 1.5 3 .278-.916.778-1.582 1.5-2 1.688 1.977 2.021 3.977 1 6-1.068-.934-2.401-1.268-4-1-.12-1.086-.787-1.753-2-2l-2 1a31.147 31.147 0 0 1 2 2h-3v-4c1.788.285 3.455-.048 5-1-.124-.607-.457-.94-1-1Zm1 5c-.342.838-1.008 1.172-2 1a31.147 31.147 0 0 0-2-2l2-1c1.213.247 1.88.914 2 2Z" style="opacity:.914"/><path fill="#999da1" d="M263.5 331.5c-2.837-1.902-6.171-2.569-10-2-.321 5.195.013 10.195 1 15-.06.543-.393.876-1 1a73.133 73.133 0 0 1-1-17h12c.237 1.291-.096 2.291-1 3Z" style="opacity:.655"/><path fill="#c7cdcc" d="M193.5 332.5h-3v3h6v4h-6v6c-1.322.17-2.489-.163-3.5-1a128.507 128.507 0 0 1-.5-16h12v4h-5Z" style="opacity:1"/><path fill="#aeafb0" d="M204.5 332.5c1-.333 1.667-1 2-2 1.956-2.397 3.79-2.397 5.5 0a49.226 49.226 0 0 1 0 14c-1.333 1.333-2.667 1.333-4 0l-1-10c-1.813 1.109-2.646.442-2.5-2Z" style="opacity:.895"/><path fill="#dee3e4" d="M263.5 331.5h-8v4h6c.904.709 1.237 1.709 1 3-2.235-.295-4.235.039-6 1 1.418 1.808 3.418 2.475 6 2 2.239 1.501 2.239 2.834 0 4a19.372 19.372 0 0 0-8-1c-.987-4.805-1.321-9.805-1-15 3.829-.569 7.163.098 10 2Z" style="opacity:.941"/><path fill="#6f7275" d="M283.5 331.5c-.781 1.822-1.948 2.489-3.5 2a72.367 72.367 0 0 0-.5 12c-1.599.268-2.932-.066-4-1h3v-13h5Z" style="opacity:.447"/><path fill="#dfe2e2" d="M242.5 335.5c-.722.418-1.222 1.084-1.5 2-.232-1.237-.732-2.237-1.5-3-.499-2.889-1.999-3.556-4.5-2a4.934 4.934 0 0 0-.5 3h4c.543.06.876.393 1 1-1.545.952-3.212 1.285-5 1v4h3c.992.172 1.658-.162 2-1 1.599-.268 2.932.066 4 1 .131.876-.202 1.543-1 2-3.674 2.044-7.174 2.378-10.5 1a128.507 128.507 0 0 1-.5-16 28.819 28.819 0 0 1 10 1c1.986 1.895 2.319 3.895 1 6Z" style="opacity:.914"/><path fill="#444445" d="M239.5 334.5c-.667 0-1 .333-1 1h-4a4.934 4.934 0 0 1 .5-3c2.501-1.556 4.001-.889 4.5 2Z" style="opacity:.084"/><path fill="#1a2324" d="M256.5 339.5c2.51-.446 4.51.22 6 2-2.582.475-4.582-.192-6-2Z" style="opacity:.047"/></svg>